<svg width="19" height="20" viewBox="0 0 19 20" fill="none" xmlns="http://www.w3.org/2000/svg">
<path d="M1.31787 14.3092C1.31787 14.855 1.53466 15.3783 1.92055 15.7642C2.30644 16.1501 2.82981 16.3669 3.37554 16.3669H15.7216C16.2673 16.3669 16.7907 16.1501 17.1765 15.7642C17.5624 15.3783 17.7792 14.855 17.7792 14.3092V8.65063H1.31787V14.3092ZM3.74298 11.5167C3.74298 11.2243 3.85912 10.9439 4.06584 10.7372C4.27257 10.5305 4.55295 10.4144 4.8453 10.4144H6.60902C6.90137 10.4144 7.18176 10.5305 7.38848 10.7372C7.59521 10.9439 7.71134 11.2243 7.71134 11.5167V12.2516C7.71134 12.5439 7.59521 12.8243 7.38848 13.031C7.18176 13.2377 6.90137 13.3539 6.60902 13.3539H4.8453C4.55295 13.3539 4.27257 13.2377 4.06584 13.031C3.85912 12.8243 3.74298 12.5439 3.74298 12.2516V11.5167Z" fill="white"/>
<path d="M15.7216 3.43237H3.37554C2.82981 3.43237 2.30644 3.64916 1.92055 4.03505C1.53466 4.42094 1.31787 4.94431 1.31787 5.49004V6.44539H17.7792V5.49004C17.7792 4.94431 17.5624 4.42094 17.1765 4.03505C16.7907 3.64916 16.2673 3.43237 15.7216 3.43237Z" fill="white"/>
</svg>
