<svg width="18" height="17" viewBox="0 0 18 17" fill="none" xmlns="http://www.w3.org/2000/svg">
<path d="M16.5634 7.8469C16.5663 8.9371 16.3116 10.0126 15.82 10.9857C15.2373 12.1518 14.3413 13.1326 13.2326 13.8182C12.1238 14.5039 10.8461 14.8673 9.5425 14.8678C8.45229 14.8707 7.37684 14.616 6.40372 14.1244L1.69556 15.6938L3.26494 10.9857C2.77342 10.0126 2.51871 8.9371 2.52155 7.8469C2.52205 6.54328 2.88549 5.26554 3.57116 4.15681C4.25682 3.04808 5.23763 2.15214 6.40372 1.56935C7.37684 1.07782 8.45229 0.823109 9.5425 0.825951H9.95549C11.6771 0.920934 13.3033 1.64762 14.5225 2.86686C15.7418 4.08611 16.4685 5.71224 16.5634 7.4339V7.8469Z" stroke="white" stroke-width="1.65199" stroke-linecap="round" stroke-linejoin="round"/>
</svg>
