<svg width="1512" height="229" viewBox="0 0 1512 229" fill="none" xmlns="http://www.w3.org/2000/svg">
<g style="mix-blend-mode:overlay">
<g style="mix-blend-mode:overlay">
<path d="M3600.78 228.666C1908.05 170.265 44.731 170.265 -1648 228.666L-1647.16 228.246C-812.658 139.809 -198.512 71.2176 435.326 0.381774C795.94 -0.127258 1156.64 -0.127258 1517.41 0.381774C2151.27 71.2176 2765.43 139.809 3599.94 228.246L3600.78 228.666ZM-1642.51 228.087C46.9994 169.982 1905.78 169.982 3595.29 228.087C2762.81 139.954 2149.55 71.5385 1517.16 0.910362C1156.72 0.394338 796.191 0.394338 435.586 0.910362C-196.792 71.5448 -810.062 139.956 -1642.52 228.087H-1642.51Z" fill="white"/>
</g>
<g style="mix-blend-mode:overlay">
<path d="M2800.82 142.854C1598.92 119.547 353.834 119.547 -848.062 142.854C-847.958 142.703 -847.859 142.55 -847.764 142.397C353.969 119.14 1598.79 119.14 2800.52 142.397C2800.62 142.55 2800.72 142.703 2800.82 142.854Z" fill="white"/>
</g>
<g style="mix-blend-mode:overlay">
<path d="M2565.69 117.194C1514.52 101.252 438.245 101.252 -612.927 117.194C-612.88 117.039 -612.829 116.884 -612.781 116.728C438.32 100.82 1514.44 100.82 2565.54 116.728C2565.59 116.884 2565.64 117.039 2565.69 117.194Z" fill="white"/>
</g>
<g style="mix-blend-mode:overlay">
<path d="M2386.78 97.5438C1451.69 86.2018 501.071 86.2018 -434.016 97.5438L-433.971 97.0677C501.104 85.7613 1451.66 85.7613 2386.73 97.0677L2386.78 97.5438Z" fill="white"/>
</g>
<g style="mix-blend-mode:overlay">
<path d="M2245.7 81.9808C1402.86 73.6594 549.908 73.6594 -292.938 81.9808C-292.938 81.8193 -292.938 81.6598 -292.961 81.4983C549.911 73.2063 1402.85 73.2063 2245.72 81.4983C2245.72 81.6598 2245.71 81.8193 2245.7 81.9808Z" fill="white"/>
</g>
<g style="mix-blend-mode:overlay">
<path d="M2131.34 69.3214C1363.65 63.0578 589.115 63.0578 -178.572 69.3214C-178.599 69.1578 -178.623 68.9942 -178.649 68.8306C589.103 62.5942 1363.68 62.5942 2131.42 68.8306C2131.39 68.9942 2131.36 69.1578 2131.34 69.3214Z" fill="white"/>
</g>
<g style="mix-blend-mode:overlay">
<path d="M2036.6 58.8186C1331.38 53.994 621.381 53.994 -83.8414 58.8186C-83.8771 58.6529 -83.9129 58.4871 -83.9517 58.3214C621.351 53.5283 1331.41 53.5283 2036.71 58.3214C2036.67 58.4787 2036.64 58.6445 2036.6 58.8186Z" fill="white"/>
</g>
<g style="mix-blend-mode:overlay">
<path d="M1956.72 49.9315C1304.3 46.1557 648.457 46.1557 -3.95866 49.9315C-4.00338 49.7637 -4.04513 49.598 -4.08984 49.4301C648.433 45.6795 1304.34 45.6795 1956.85 49.4301C1956.81 49.5896 1956.76 49.7637 1956.72 49.9315Z" fill="white"/>
</g>
<g style="mix-blend-mode:overlay">
<path d="M1888.38 42.3237C1281.22 39.3241 671.544 39.3241 64.3908 42.3237C64.3401 42.158 64.2895 41.9881 64.2358 41.8182C671.496 38.8353 1281.26 38.8353 1888.52 41.8182C1888.47 41.9881 1888.42 42.158 1888.38 42.3237Z" fill="white"/>
</g>
<g style="mix-blend-mode:overlay">
<path d="M1829.18 35.7435C1261.28 33.3228 691.483 33.3228 123.58 35.7435C123.529 35.5715 123.473 35.4016 123.419 35.2316C691.436 32.8277 1261.33 32.8277 1829.35 35.2316C1829.29 35.3911 1829.24 35.561 1829.18 35.7435Z" fill="white"/>
</g>
<g style="mix-blend-mode:overlay">
<path d="M1777.39 29.9591C1243.86 27.9873 708.901 27.9873 175.376 29.9591C175.317 29.7871 175.263 29.6171 175.207 29.443C708.844 27.4838 1243.92 27.4838 1777.56 29.443C1777.5 29.6171 1777.44 29.7871 1777.39 29.9591Z" fill="white"/>
</g>
<g style="mix-blend-mode:overlay">
<path d="M1731.65 24.8604C1228.51 23.2326 724.996 23.2326 221.11 24.8604C221.047 24.6884 220.991 24.5164 220.931 24.3444C724.193 22.7264 1227.83 22.7264 1731.83 24.3444C1731.77 24.5164 1731.72 24.6884 1731.65 24.8604Z" fill="white"/>
</g>
<g style="mix-blend-mode:overlay">
<path d="M1690.96 20.3212C1214.87 18.9689 738.477 18.9689 261.793 20.3212C261.736 20.1471 261.677 19.973 261.617 19.7989C737.837 18.4564 1214.35 18.4564 1691.15 19.7989C1691.09 19.973 1691.03 20.1471 1690.96 20.3212Z" fill="white"/>
</g>
<g style="mix-blend-mode:overlay">
<path d="M1654.51 16.2523C1202.65 15.1154 750.567 15.1154 298.247 16.2523C298.19 16.0761 298.127 15.8999 298.068 15.7258C750.05 14.607 1202.26 14.607 1654.68 15.7258C1654.64 15.8999 1654.57 16.0761 1654.51 16.2523Z" fill="white"/>
</g>
<g style="mix-blend-mode:overlay">
<path d="M1621.66 12.5814C1191.66 11.6207 761.471 11.6207 331.102 12.5814C331.043 12.4073 330.98 12.2311 330.92 12.0549C761.045 11.1054 1191.35 11.1054 1621.84 12.0549C1621.78 12.2311 1621.72 12.4073 1621.66 12.5814Z" fill="white"/>
</g>
<g style="mix-blend-mode:overlay">
<path d="M1591.89 9.25984C1181.7 8.44315 771.359 8.44315 360.875 9.25984C360.813 9.08363 360.753 8.90533 360.69 8.73122C771.006 7.92293 1181.47 7.92293 1592.07 8.73122C1592.01 8.90533 1591.94 9.08363 1591.89 9.25984Z" fill="white"/>
</g>
<g style="mix-blend-mode:overlay">
<path d="M1564.78 6.23541C1172.64 5.53619 780.37 5.53619 387.984 6.23541C387.922 6.05711 387.862 5.88092 387.799 5.70262C780.068 5.01319 1172.46 5.01319 1564.96 5.70262C1564.9 5.88092 1564.84 6.05711 1564.78 6.23541Z" fill="white"/>
</g>
<g style="mix-blend-mode:overlay">
<path d="M1539.99 3.4637C1164.35 2.86377 788.613 2.86377 412.773 3.4637C412.711 3.2854 412.654 3.10919 412.591 2.93298C788.354 2.34005 1164.21 2.34005 1540.17 2.93298C1540.11 3.10919 1540.05 3.2854 1539.99 3.4637Z" fill="white"/>
</g>
<g style="mix-blend-mode:overlay">
<path d="M3450.38 223.65C2655.59 139.158 2077.76 71.4669 1483.36 0.872364C1483.47 0.696161 1483.58 0.519953 1483.7 0.34375C2078.13 70.995 2655.53 138.709 3449.65 223.249C3449.9 223.383 3450.14 223.516 3450.38 223.65Z" fill="white"/>
</g>
<g style="mix-blend-mode:overlay">
<path d="M3297.54 218.915C2545.28 138.111 2004.53 71.2528 1449.57 0.828125L1449.9 0.303711C2004.89 70.785 2545.23 137.677 3296.88 218.521C3297.09 218.661 3297.32 218.785 3297.54 218.915Z" fill="white"/>
</g>
<g style="mix-blend-mode:overlay">
<path d="M3142.29 214.465C2434.65 137.139 1931.26 71.0481 1415.77 0.78501C1415.88 0.608807 1415.99 0.436801 1416.1 0.262695C1931.61 70.5825 2434.59 136.711 3141.68 214.071L3142.29 214.465Z" fill="white"/>
</g>
<g style="mix-blend-mode:overlay">
<path d="M2984.79 210.296C2323.66 136.238 1857.95 70.8603 1381.97 0.739795C1382.09 0.567787 1382.2 0.393688 1382.31 0.22168C1858.31 70.3946 2323.67 135.812 2984.24 209.908C2984.42 210.038 2984.6 210.167 2984.79 210.296Z" fill="white"/>
</g>
<g style="mix-blend-mode:overlay">
<path d="M2825.15 206.433C2212.41 135.409 1784.61 70.6899 1348.17 0.714111C1348.28 0.542103 1348.4 0.370106 1348.51 0.200195C1784.96 70.2368 2212.44 135 2824.69 206.06L2825.15 206.433Z" fill="white"/>
</g>
<g style="mix-blend-mode:overlay">
<path d="M2663.55 202.875C2100.88 134.649 1711.22 70.5299 1314.36 0.673658C1314.47 0.503748 1314.59 0.333828 1314.72 0.166016C1711.58 70.0747 2100.95 134.238 2663.16 202.508C2663.28 202.628 2663.42 202.749 2663.55 202.875Z" fill="white"/>
</g>
<g style="mix-blend-mode:overlay">
<path d="M2500.14 199.63C1989.1 133.961 1637.8 70.3853 1280.54 0.644508C1280.67 0.474597 1280.79 0.304676 1280.91 0.134766C1638.17 69.9385 1989.21 133.556 2499.81 199.267C2499.93 199.389 2500.03 199.511 2500.14 199.63Z" fill="white"/>
</g>
<g style="mix-blend-mode:overlay">
<path d="M2335.06 196.71C1877.11 133.342 1564.35 70.2567 1246.72 0.614478C1246.85 0.448763 1246.98 0.280949 1247.11 0.115234C1564.74 69.8141 1877.26 132.943 2334.84 196.353C2334.91 196.473 2334.98 196.592 2335.06 196.71Z" fill="white"/>
</g>
<g style="mix-blend-mode:overlay">
<path d="M2168.49 194.117C1764.91 132.797 1490.89 70.1458 1212.9 0.587524L1213.31 0.0966797C1491.28 69.7074 1765.12 132.406 2168.4 193.767C2168.42 193.882 2168.45 194 2168.49 194.117Z" fill="white"/>
</g>
<g style="mix-blend-mode:overlay">
<path d="M2000.61 191.854C1652.53 132.32 1417.37 70.0389 1179.07 0.562403L1179.51 0.0820312C1417.81 69.6152 1652.8 131.941 2000.62 191.516C2000.62 191.63 2000.62 191.741 2000.61 191.854Z" fill="white"/>
</g>
<g style="mix-blend-mode:overlay">
<path d="M1831.59 189.921C1540.01 131.904 1343.85 69.935 1145.23 0.527734L1145.73 0.0683594C1344.33 69.5428 1540.37 131.55 1831.73 189.606C1831.68 189.711 1831.63 189.82 1831.59 189.921Z" fill="white"/>
</g>
<g style="mix-blend-mode:overlay">
<path d="M1661.6 188.342C1427.35 131.574 1270.3 69.8689 1111.38 0.503516L1111.94 0.0839844C1270.82 69.4955 1427.79 131.242 1661.92 188.051C1661.8 188.143 1661.69 188.244 1661.6 188.342Z" fill="white"/>
</g>
<g style="mix-blend-mode:overlay">
<path d="M1490.84 187.095C1314.58 131.297 1196.72 69.794 1077.52 0.47063C1077.73 0.342672 1077.95 0.216824 1078.16 0.0888672C1197.34 69.4563 1315.14 131.002 1491.32 186.831L1490.84 187.095Z" fill="white"/>
</g>
<g style="mix-blend-mode:overlay">
<path d="M1319.49 186.19C1201.74 131.086 1123.12 69.7256 1043.65 0.427344C1043.9 0.322461 1044.15 0.217586 1044.4 0.121094C1123.84 69.455 1202.42 130.851 1320.18 185.974L1319.49 186.19Z" fill="white"/>
</g>
<g style="mix-blend-mode:overlay">
<path d="M1147.78 185.618C1088.84 130.928 1049.54 69.6445 1009.79 0.354639L1010.64 0.182617C1050.36 69.4892 1089.66 130.793 1148.66 185.496L1147.78 185.618Z" fill="white"/>
</g>
<g style="mix-blend-mode:overlay">
<path d="M976.849 185.38H975.913C975.94 130.824 975.946 69.5595 975.913 0.267578H976.807C976.813 69.5595 976.822 130.824 976.849 185.38Z" fill="white"/>
</g>
<g style="mix-blend-mode:overlay">
<path d="M804.979 185.618L804.12 185.496C863.104 130.793 902.413 69.4955 942.137 0.182617L942.989 0.354639C903.239 69.6445 863.932 130.928 804.979 185.618Z" fill="white"/>
</g>
<g style="mix-blend-mode:overlay">
<path d="M633.278 186.191L632.595 185.981C750.341 130.855 828.927 69.4586 908.372 0.128906C908.625 0.229594 908.873 0.338689 909.126 0.435182C829.637 69.7271 751.039 131.088 633.278 186.191Z" fill="white"/>
</g>
<g style="mix-blend-mode:overlay">
<path d="M461.926 187.095L461.44 186.831C637.612 131.002 755.421 69.4563 874.595 0.0888672C874.807 0.216824 875.027 0.342672 875.239 0.47063C756.047 69.794 638.187 131.299 461.926 187.095Z" fill="white"/>
</g>
<g style="mix-blend-mode:overlay">
<path d="M291.164 188.343C291.062 188.242 290.958 188.144 290.866 188.045C524.978 131.236 681.938 69.4896 840.845 0.078125L841.405 0.497657C682.463 69.8693 525.413 131.574 291.164 188.343Z" fill="white"/>
</g>
<g style="mix-blend-mode:overlay">
<path d="M121.18 189.922C121.13 189.815 121.079 189.712 121.031 189.601C412.392 131.55 608.435 69.5437 807.036 0.0839844L807.536 0.543359C608.921 69.9465 412.759 131.911 121.18 189.922Z" fill="white"/>
</g>
<g style="mix-blend-mode:overlay">
<path d="M-47.8438 191.854C-47.8438 191.741 -47.8438 191.63 -47.8438 191.516C299.97 131.943 534.964 69.6152 773.258 0.0820312C773.411 0.241453 773.557 0.402981 773.709 0.562403C535.39 70.0389 300.229 132.32 -47.8438 191.854Z" fill="white"/>
</g>
<g style="mix-blend-mode:overlay">
<path d="M-215.729 194.116C-215.69 194.001 -215.657 193.883 -215.619 193.768C187.643 132.407 461.479 69.7084 739.467 0.0976562L739.878 0.588526C461.875 70.1447 187.854 132.795 -215.729 194.116Z" fill="white"/>
</g>
<g style="mix-blend-mode:overlay">
<path d="M-382.293 196.71C-382.222 196.592 -382.15 196.473 -382.082 196.353C75.4888 132.943 388.023 69.8141 705.654 0.115234L706.042 0.614478C388.413 70.2567 75.6558 133.342 -382.293 196.71Z" fill="white"/>
</g>
<g style="mix-blend-mode:overlay">
<path d="M-547.371 199.63C-547.267 199.511 -547.165 199.389 -547.073 199.267C-36.445 133.556 314.591 69.9364 671.851 0.134766L672.217 0.644508C314.963 70.3853 -36.3436 133.961 -547.371 199.63Z" fill="white"/>
</g>
<g style="mix-blend-mode:overlay">
<path d="M-710.792 202.875C-710.663 202.749 -710.529 202.628 -710.398 202.504C-148.182 134.238 241.179 70.0747 638.046 0.166016C638.166 0.333828 638.282 0.503748 638.398 0.673658C241.54 70.5299 -148.114 134.649 -710.792 202.875Z" fill="white"/>
</g>
<g style="mix-blend-mode:overlay">
<path d="M-872.384 206.433C-872.223 206.307 -872.068 206.179 -871.907 206.053C-259.662 134.993 167.813 70.23 604.243 0.193359C604.359 0.36327 604.472 0.535267 604.589 0.707275C168.159 70.6893 -259.645 135.408 -872.384 206.433Z" fill="white"/>
</g>
<g style="mix-blend-mode:overlay">
<path d="M-1032.02 210.296L-1031.48 209.913C-370.907 135.817 94.4527 70.3995 570.448 0.226562C570.565 0.39857 570.675 0.57267 570.788 0.744678C94.8075 70.861 -370.901 136.239 -1032.02 210.296Z" fill="white"/>
</g>
<g style="mix-blend-mode:overlay">
<path d="M-1189.53 214.464L-1188.93 214.074C-481.86 136.714 21.1341 70.5938 536.642 0.265625C536.755 0.439731 536.868 0.611736 536.976 0.78794C21.4978 71.0469 -481.869 137.138 -1189.53 214.464Z" fill="white"/>
</g>
<g style="mix-blend-mode:overlay">
<path d="M-1344.78 218.913C-1344.55 218.783 -1344.33 218.651 -1344.1 218.519C-592.476 137.675 -52.1338 70.7743 502.859 0.292969C502.966 0.467074 503.083 0.643278 503.19 0.817383C-51.7732 71.2504 -592.514 138.109 -1344.78 218.913Z" fill="white"/>
</g>
<g style="mix-blend-mode:overlay">
<path d="M-1497.61 223.65C-1497.37 223.516 -1497.13 223.383 -1496.9 223.249C-702.769 138.709 -125.366 70.995 469.065 0.34375C469.181 0.519953 469.291 0.696161 469.402 0.872364C-124.999 71.4669 -702.823 139.158 -1497.61 223.65Z" fill="white"/>
</g>
<g style="mix-blend-mode:overlay">
<path d="M3124.82 177.887C1719.5 142.13 233.259 142.13 -1172.06 177.887L-1171.52 177.446C233.507 141.748 1719.26 141.748 3124.28 177.446L3124.82 177.887Z" fill="white"/>
</g>
</g>
</svg>
